<svg version="1.1" id="Layer_1" xmlns="http://www.w3.org/2000/svg" xmlns:xlink="http://www.w3.org/1999/xlink" x="0px" y="0px"
	 width="100%" viewBox="0 0 64 64" enable-background="new 0 0 64 64" xml:space="preserve">
<path fill="#EC2125" opacity="1.000000" stroke="none" 
	d="
M1.000000,61.000000 
	C1.000000,55.311958 1.000000,49.623920 1.321847,43.315903 
	C3.353719,39.331566 6.227561,38.497318 9.569467,39.474800 
	C12.848290,40.433826 14.100695,42.821835 14.093928,46.320843 
	C14.090365,48.163136 15.325047,50.007816 16.465034,51.922043 
	C27.952629,51.945511 38.975807,51.898354 50.381721,51.661781 
	C50.764465,39.111809 50.764465,26.751251 50.764465,13.991739 
	C39.416309,13.991739 28.484264,14.030594 17.552792,13.968659 
	C14.161492,13.949446 13.801235,16.057869 13.991973,18.602100 
	C14.260070,22.178198 13.646782,25.541435 9.856740,26.684473 
	C6.217721,27.781963 3.173445,26.113493 1.000000,23.000000 
	C1.000000,17.311958 1.000000,11.623919 1.309646,5.365709 
	C2.710909,3.859046 3.802527,2.922552 5.369324,1.997583 
	C21.797255,2.002984 37.750198,2.033090 53.702518,1.946952 
	C55.803322,1.935608 57.900917,1.330245 60.000000,1.000000 
	C61.666668,1.000000 63.333332,1.000000 64.712494,1.692195 
	C64.112419,2.947399 63.523277,3.512470 63.527451,4.073118 
	C63.654545,21.126343 63.815262,38.179482 64.057030,55.231411 
	C64.079636,56.825073 64.672112,58.410664 65.000000,60.000000 
	C65.000000,61.587471 65.000000,63.174942 65.000000,65.000000 
	C63.335873,65.000000 61.667404,65.000000 59.139709,64.797554 
	C56.142975,64.399574 54.006172,64.043434 51.867851,64.034111 
	C35.892654,63.964447 19.917158,63.963375 3.683608,63.779854 
	C2.616974,62.745930 1.808487,61.872963 1.000000,61.000000 
z"/>
<path fill="#FFFFFF" opacity="1.000000" stroke="none" 
	d="
M16.000616,51.851421 
	C15.325047,50.007816 14.090365,48.163136 14.093928,46.320843 
	C14.100695,42.821835 12.848290,40.433826 9.569467,39.474800 
	C6.227561,38.497318 3.353719,39.331566 1.321847,42.847961 
	C1.000000,36.645603 1.000000,30.291204 1.000000,23.468403 
	C3.173445,26.113493 6.217721,27.781963 9.856740,26.684473 
	C13.646782,25.541435 14.260070,22.178198 13.991973,18.602100 
	C13.801235,16.057869 14.161492,13.949446 17.552792,13.968659 
	C28.484264,14.030594 39.416309,13.991739 50.764465,13.991739 
	C50.764465,26.751251 50.764465,39.111809 50.133247,51.311886 
	C40.702534,51.100937 31.902670,50.988819 23.103777,51.040859 
	C20.734541,51.054871 18.368256,51.567616 16.000616,51.851421 
M45.879745,30.735929 
	C42.430496,26.968699 39.252872,22.894922 35.450729,19.525955 
	C32.079090,16.538439 27.640797,17.712530 25.336052,21.595961 
	C24.524881,22.962759 24.016491,24.509251 23.428053,25.841887 
	C13.686435,26.581417 10.466151,28.281776 10.170204,32.709946 
	C9.862468,37.314526 13.334733,39.190811 24.032925,40.200848 
	C24.342199,47.192780 29.624939,51.434021 34.336071,47.932705 
	C38.714592,44.678585 42.229008,40.194000 45.804432,35.980118 
	C46.587627,35.057068 46.018932,32.986954 45.879745,30.735929 
z"/>
<path fill="#E5533F" opacity="1.000000" stroke="none" 
	d="
M65.000000,59.531342 
	C64.672112,58.410664 64.079636,56.825073 64.057030,55.231411 
	C63.815262,38.179482 63.654545,21.126343 63.527451,4.073118 
	C63.523277,3.512470 64.112419,2.947399 64.712494,2.192195 
	C65.000000,21.020895 65.000000,40.041790 65.000000,59.531342 
z"/>
<path fill="#E63730" opacity="1.000000" stroke="none" 
	d="
M59.531342,1.000000 
	C57.900917,1.330245 55.803322,1.935608 53.702518,1.946952 
	C37.750198,2.033090 21.797255,2.002984 5.419094,1.753417 
	C4.993685,1.497727 5.000000,1.000000 5.000000,1.000000 
	C23.020895,1.000000 41.041790,1.000000 59.531342,1.000000 
z"/>
<path fill="#E6372F" opacity="1.000000" stroke="none" 
	d="
M3.941756,63.940811 
	C19.917158,63.963375 35.892654,63.964447 51.867851,64.034111 
	C54.006172,64.043434 56.142975,64.399574 58.640244,64.797554 
	C40.979103,65.000000 22.958210,65.000000 4.455886,64.735107 
	C3.963557,64.293739 3.952657,64.117271 3.941756,63.940811 
z"/>
<path fill="#FFFFFF" opacity="1.000000" stroke="none" 
	d="
M4.500000,1.000000 
	C5.000000,1.000000 4.993685,1.497727 4.943915,1.741892 
	C3.802527,2.922552 2.710909,3.859046 1.309646,4.897770 
	C1.085212,2.980576 0.029743,0.105640 4.500000,1.000000 
z"/>
<path fill="#FFFFFF" opacity="1.000000" stroke="none" 
	d="
M3.683608,63.779854 
	C3.952657,64.117271 3.963557,64.293739 3.987229,64.735107 
	C1.501197,65.498802 0.501197,64.498802 1.000000,61.500000 
	C1.808487,61.872963 2.616974,62.745930 3.683608,63.779854 
z"/>
<path fill="#FFFFFF" opacity="1.000000" stroke="none" 
	d="
M16.465034,51.922043 
	C18.368256,51.567616 20.734541,51.054871 23.103777,51.040859 
	C31.902670,50.988819 40.702534,51.100937 49.750507,51.501301 
	C38.975807,51.898354 27.952629,51.945511 16.465034,51.922043 
z"/>
<path fill="#EB2528" opacity="1.000000" stroke="none" 
	d="
M45.976280,31.090511 
	C46.018932,32.986954 46.587627,35.057068 45.804432,35.980118 
	C42.229008,40.194000 38.714592,44.678585 34.336071,47.932705 
	C29.624939,51.434021 24.342199,47.192780 24.032925,40.200848 
	C13.334733,39.190811 9.862468,37.314526 10.170204,32.709946 
	C10.466151,28.281776 13.686435,26.581417 23.428053,25.841887 
	C24.016491,24.509251 24.524881,22.962759 25.336052,21.595961 
	C27.640797,17.712530 32.079090,16.538439 35.450729,19.525955 
	C39.252872,22.894922 42.430496,26.968699 45.976280,31.090511 
z"/>
</svg>